{"glyphs":{":":{"x_min":0,"x_max":602,"ha":602,"o":"m 269 518 l 392 518 l 363 370 l 240 370 z m 197 148 l 320 148 l 291 0 l 168 0 z"},"$":{"x_min":0,"x_max":602,"ha":602,"o":"m 307 287 l 265 71 q 328 71 367 106 q 406 142 406 198 q 406 236 383 257 q 360 278 307 287 z m 275 378 l 314 578 q 256 574 219 541 q 182 507 182 459 q 182 425 203 407 q 223 389 275 378 z m 222 -147 l 173 -147 l 202 0 q 155 1 108 13 q 62 24 15 45 l 32 133 q 72 104 118 87 q 164 71 215 69 l 259 296 q 173 313 134 348 q 95 384 95 445 q 95 529 160 585 q 225 642 327 645 l 350 760 l 399 760 l 376 645 q 417 642 456 635 q 494 627 529 615 l 513 531 q 481 550 444 562 q 406 573 363 577 l 323 369 q 408 353 452 312 q 495 271 495 208 q 495 118 428 60 q 361 1 256 1 l 251 1 z"},"?":{"x_min":0,"x_max":602,"ha":602,"o":"m 297 196 l 204 196 l 218 271 q 227 315 246 347 q 265 379 320 425 l 372 469 q 414 504 431 531 q 448 559 448 586 q 448 622 421 642 q 394 662 345 662 q 307 662 259 645 q 210 627 159 595 l 177 687 q 230 715 279 729 q 329 742 378 742 q 453 742 500 702 q 547 663 547 601 q 547 555 523 516 q 500 477 436 424 l 385 382 q 344 348 329 323 q 314 298 307 256 z m 187 124 l 286 124 l 262 0 l 162 0 z"},"<":{"x_min":0,"x_max":602,"ha":602,"o":"m 559 469 l 144 313 l 559 158 l 559 69 l 43 273 l 43 354 l 559 558 z"},"'":{"x_min":0,"x_max":602,"ha":602,"o":"m 343 729 l 343 458 l 258 458 l 258 729 z"},"=":{"x_min":0,"x_max":602,"ha":602,"o":"m 43 256 l 559 256 l 559 172 l 43 172 z m 43 454 l 559 454 l 559 371 l 43 371 z"},"a":{"x_min":0,"x_max":602,"ha":602,"o":"m 338 275 q 280 275 251 271 q 223 268 202 259 q 169 246 149 216 q 129 186 129 150 q 129 109 154 85 q 179 61 222 61 q 294 61 347 113 q 399 165 418 255 l 422 275 z m 519 312 l 458 0 l 368 0 l 384 81 q 349 35 301 10 q 253 -14 199 -14 q 125 -14 80 27 q 35 67 35 135 q 35 230 111 288 q 186 345 315 345 l 435 345 l 441 375 q 442 379 442 384 q 443 389 443 398 q 443 439 412 462 q 381 484 324 484 q 282 484 234 471 q 185 459 131 434 l 148 522 q 201 541 248 551 q 295 560 339 560 q 430 560 480 520 q 531 480 531 409 q 531 394 528 368 q 525 343 519 312 z"},"L":{"x_min":0,"x_max":602,"ha":602,"o":"m 180 729 l 279 729 l 153 83 l 505 83 l 489 0 l 38 0 z"},"3":{"x_min":0,"x_max":602,"ha":602,"o":"m 372 390 q 428 380 459 340 q 490 300 490 239 q 490 125 408 55 q 327 -14 190 -14 q 137 -14 87 -5 q 37 4 -9 22 l 10 120 q 54 95 101 82 q 147 69 195 69 q 284 69 338 115 q 393 160 393 233 q 393 290 358 320 q 323 349 256 349 l 181 349 l 197 430 l 272 430 q 349 430 395 467 q 440 503 440 564 q 440 613 410 636 q 380 659 317 659 q 277 659 229 649 q 182 640 127 620 l 145 711 q 205 727 252 735 q 300 742 341 742 q 433 742 485 699 q 538 656 538 582 q 538 507 494 457 q 451 406 372 390 z"},";":{"x_min":0,"x_max":602,"ha":602,"o":"m 197 148 l 320 148 l 300 47 l 174 -140 l 99 -140 l 177 47 z m 269 519 l 392 519 l 363 371 l 240 371 z"},"J":{"x_min":0,"x_max":602,"ha":602,"o":"m -12 30 l 10 145 q 45 106 90 86 q 135 66 185 66 q 254 66 289 102 q 323 137 343 238 l 423 646 l 237 646 l 253 729 l 538 729 l 442 238 q 415 97 356 41 q 297 -14 181 -14 q 134 -14 85 -3 q 36 8 -12 30 z"},"V":{"x_min":0,"x_max":602,"ha":602,"o":"m 249 93 l 541 729 l 646 729 l 295 0 l 169 0 l 97 729 l 194 729 z"},"\"":{"x_min":0,"x_max":602,"ha":602,"o":"m 437 729 l 437 458 l 352 458 l 352 729 z m 250 729 l 250 458 l 165 458 l 165 729 z"},"7":{"x_min":0,"x_max":602,"ha":602,"o":"m 135 729 l 592 729 l 584 683 l 191 0 l 85 0 l 465 646 l 119 646 z"},"S":{"x_min":0,"x_max":602,"ha":602,"o":"m 560 704 l 541 604 q 501 633 459 647 q 417 662 371 662 q 291 662 240 622 q 189 582 189 520 q 189 485 213 464 q 237 442 300 423 l 359 404 q 438 379 475 339 q 512 298 512 235 q 512 120 431 53 q 350 -14 210 -14 q 159 -14 110 -3 q 61 8 12 30 l 32 132 q 80 98 129 82 q 178 66 233 66 q 313 66 364 109 q 414 152 414 218 q 414 258 393 280 q 371 302 306 322 l 257 338 q 167 366 131 402 q 95 438 95 497 q 95 605 176 674 q 256 742 386 742 q 425 742 469 732 q 514 723 560 704 z"},"}":{"x_min":0,"x_max":602,"ha":602,"o":"m -7 -163 l 7 -93 l 45 -93 q 111 -93 134 -73 q 157 -54 172 19 l 197 142 q 213 220 242 256 q 271 291 326 301 q 290 310 271 335 q 251 360 251 397 q 251 409 253 425 q 254 440 258 459 l 281 578 q 284 594 285 607 q 286 619 286 631 q 286 662 265 676 q 245 690 197 690 l 159 690 l 172 760 l 208 760 q 300 760 339 733 q 379 707 379 647 q 379 631 377 615 q 375 598 372 580 l 350 465 q 350 463 349 459 q 344 435 344 413 q 344 371 368 353 q 392 335 447 335 l 477 335 l 463 263 l 433 263 q 363 263 332 236 q 301 209 285 136 l 262 17 q 250 -43 232 -78 q 214 -113 188 -132 q 165 -148 131 -156 q 98 -163 33 -163 z"},"Z":{"x_min":0,"x_max":602,"ha":602,"o":"m 149 729 l 622 729 l 608 654 l 130 83 l 508 83 l 491 0 l -3 0 l 11 75 l 488 646 l 133 646 z"},"x":{"x_min":0,"x_max":602,"ha":602,"o":"m 590 547 l 340 280 l 495 0 l 399 0 l 280 217 l 76 0 l -34 0 l 241 291 l 98 547 l 194 547 l 300 354 l 480 547 z"},")":{"x_min":0,"x_max":602,"ha":602,"o":"m 73 -132 q 188 15 247 164 q 305 313 305 461 q 305 532 291 606 q 276 680 247 759 l 325 759 q 363 667 382 590 q 400 513 400 444 q 400 296 337 150 q 274 3 151 -132 z"},"&":{"x_min":0,"x_max":602,"ha":602,"o":"m 277 443 l 427 171 q 457 203 475 253 q 493 303 499 371 l 581 371 q 573 289 543 223 q 513 158 461 108 l 521 0 l 424 0 l 395 55 q 349 21 300 3 q 251 -14 200 -14 q 105 -14 48 38 q -10 90 -10 176 q -10 258 39 328 q 87 399 179 449 q 165 475 158 501 q 151 527 151 554 q 151 639 211 691 q 271 742 372 742 q 404 742 434 736 q 464 730 492 719 l 475 630 q 455 648 425 658 q 395 667 358 667 q 303 667 269 639 q 236 611 236 565 q 236 542 247 510 q 257 478 277 443 z m 211 388 q 145 353 111 304 q 77 256 77 199 q 77 141 119 102 q 161 63 224 63 q 256 63 292 77 q 327 91 362 117 z"},"_":{"x_min":0,"x_max":602,"ha":602,"o":"m 602 -197 l 602 -236 l 0 -236 l 0 -197 z"},"v":{"x_min":0,"x_max":602,"ha":602,"o":"m 89 547 l 176 547 l 251 80 l 496 547 l 593 547 l 293 0 l 177 0 z"},"O":{"x_min":0,"x_max":602,"ha":602,"o":"m 245 66 q 287 66 322 91 q 357 116 380 162 q 416 233 438 333 q 461 434 461 527 q 461 596 435 629 q 410 662 356 662 q 314 662 280 637 q 245 612 222 566 q 185 494 163 395 q 140 295 140 202 q 140 132 166 99 q 191 66 245 66 z m 562 498 q 562 444 551 381 q 540 318 519 252 q 505 207 489 171 q 472 136 453 107 q 410 45 357 15 q 304 -14 233 -14 q 135 -14 87 46 q 40 106 40 231 q 40 285 51 347 q 61 410 82 476 q 96 521 113 557 q 129 592 148 621 q 191 683 244 713 q 297 742 368 742 q 467 742 514 682 q 562 623 562 498 z"},"(":{"x_min":0,"x_max":602,"ha":602,"o":"m 509 759 q 394 612 335 463 q 277 313 277 166 q 277 95 291 21 q 306 -53 335 -132 l 257 -132 q 218 -40 200 37 q 182 114 182 183 q 182 331 245 477 q 308 624 431 759 z"},"C":{"x_min":0,"x_max":602,"ha":602,"o":"m 461 26 q 420 6 378 -4 q 336 -14 292 -14 q 180 -14 118 51 q 56 116 56 233 q 56 340 90 446 q 125 551 180 618 q 232 682 295 712 q 358 742 439 742 q 478 742 517 732 q 555 722 592 702 l 572 601 q 541 632 506 647 q 471 662 432 662 q 386 662 346 642 q 307 623 272 582 q 221 522 190 428 q 159 334 159 240 q 159 156 197 111 q 235 66 307 66 q 349 66 393 82 q 437 97 480 127 z"},"W":{"x_min":0,"x_max":602,"ha":602,"o":"m 71 729 l 164 729 l 120 138 l 281 529 l 384 529 l 391 137 l 575 729 l 672 729 l 423 0 l 328 0 l 313 425 l 132 0 l 40 0 z"},"A":{"x_min":0,"x_max":602,"ha":602,"o":"m 359 647 l 181 269 l 391 269 z m 312 729 l 432 729 l 513 0 l 415 0 l 398 190 l 144 190 l 54 0 l -52 0 z"},"f":{"x_min":0,"x_max":602,"ha":602,"o":"m 608 760 l 593 685 l 491 685 q 445 685 421 665 q 398 645 388 595 l 378 547 l 566 547 l 553 477 l 365 477 l 272 0 l 182 0 l 275 477 l 129 477 l 143 547 l 288 547 l 296 585 q 314 679 362 719 q 409 760 500 760 z"},"Q":{"x_min":0,"x_max":602,"ha":602,"o":"m 246 -13 l 241 -13 q 136 -13 88 45 q 40 103 40 231 q 40 285 51 347 q 61 410 82 476 q 96 521 113 557 q 129 592 148 621 q 191 683 244 713 q 297 742 368 742 q 467 742 514 682 q 562 623 562 498 q 562 458 555 409 q 548 361 534 307 q 520 250 504 208 q 488 167 470 134 q 444 87 410 54 q 375 21 337 5 l 412 -87 l 337 -132 z m 245 66 q 287 66 322 91 q 357 116 380 162 q 416 233 438 333 q 461 434 461 527 q 461 596 435 629 q 410 662 356 662 q 314 662 280 637 q 245 612 222 566 q 185 494 163 395 q 140 295 140 202 q 140 132 166 99 q 191 66 245 66 z"},"w":{"x_min":0,"x_max":602,"ha":602,"o":"m 45 547 l 131 547 l 138 105 l 269 387 l 348 387 l 372 105 l 549 547 l 642 547 l 405 0 l 324 0 l 295 304 l 150 0 l 69 0 z"},"-":{"x_min":0,"x_max":602,"ha":602,"o":"m 164 314 l 419 314 l 403 234 l 148 234 z"},"E":{"x_min":0,"x_max":602,"ha":602,"o":"m 168 729 l 600 729 l 584 646 l 250 646 l 208 430 l 527 430 l 511 347 l 192 347 l 141 83 l 484 83 l 468 0 l 26 0 z"},"s":{"x_min":0,"x_max":602,"ha":602,"o":"m 526 528 l 509 440 q 474 462 436 473 q 397 485 360 485 q 293 485 256 460 q 219 435 219 390 q 219 342 327 315 q 334 313 338 312 l 373 303 q 430 288 458 258 q 487 228 487 183 q 487 95 417 40 q 346 -14 230 -14 q 190 -14 147 -6 q 104 3 56 20 l 74 113 q 120 87 163 74 q 207 61 247 61 q 312 61 353 90 q 394 119 394 164 q 394 212 298 238 q 290 240 285 241 l 252 250 q 189 266 159 297 q 130 329 130 379 q 130 462 194 511 q 259 560 368 560 q 411 560 451 552 q 490 544 526 528 z"},">":{"x_min":0,"x_max":602,"ha":602,"o":"m 43 469 l 43 558 l 559 354 l 559 273 l 43 69 l 43 158 l 458 313 z"},"l":{"x_min":0,"x_max":602,"ha":602,"o":"m 293 199 q 290 182 288 169 q 286 156 286 147 q 286 111 308 94 q 330 76 374 76 l 477 76 l 462 0 l 361 0 q 276 0 235 31 q 194 62 194 126 q 194 140 196 159 q 199 179 203 201 l 306 695 l 152 695 l 166 765 l 410 765 z"},"8":{"x_min":0,"x_max":602,"ha":602,"o":"m 401 225 q 401 282 369 314 q 336 346 279 346 q 209 346 165 298 q 120 250 120 175 q 120 124 153 93 q 186 62 240 62 q 312 62 357 107 q 401 152 401 225 z m 210 387 q 158 406 131 441 q 105 477 105 528 q 105 617 177 679 q 250 742 354 742 q 441 742 495 698 q 550 653 550 583 q 550 513 502 457 q 455 402 377 382 q 438 367 470 327 q 501 286 501 221 q 501 119 427 52 q 353 -14 237 -14 q 136 -14 78 36 q 20 85 20 173 q 20 254 71 312 q 122 369 210 387 z m 345 666 q 283 666 243 627 q 203 587 203 527 q 203 479 232 451 q 260 423 310 423 q 370 423 411 465 q 452 508 452 569 q 452 613 423 640 q 394 666 345 666 z"},"\\":{"x_min":0,"x_max":602,"ha":602,"o":"m 354 -93 l 271 -93 l 174 729 l 257 729 z"},"e":{"x_min":0,"x_max":602,"ha":602,"o":"m 458 322 q 461 335 462 344 q 463 352 463 360 q 463 418 431 451 q 399 484 343 484 q 283 484 233 440 q 184 396 162 322 z m 469 28 q 418 7 369 -4 q 320 -14 270 -14 q 161 -14 104 40 q 48 95 48 199 q 48 275 77 349 q 106 422 158 475 q 199 517 248 539 q 297 561 350 561 q 441 561 495 505 q 550 449 550 356 q 550 339 547 315 q 545 290 539 252 l 145 252 q 142 236 141 224 q 139 211 139 201 q 139 133 177 98 q 214 62 286 62 q 329 62 380 76 q 431 90 487 117 z"},"b":{"x_min":0,"x_max":602,"ha":602,"o":"m 263 62 q 304 62 337 84 q 371 106 393 148 q 417 194 431 250 q 445 307 445 360 q 445 422 420 454 q 396 485 346 485 q 306 485 272 462 q 239 440 214 397 q 190 355 176 298 q 162 241 162 187 q 162 127 188 94 q 214 62 263 62 z m 212 477 q 242 518 282 539 q 322 560 372 560 q 452 560 497 510 q 541 459 541 368 q 541 297 521 227 q 501 157 466 104 q 429 48 375 17 q 322 -14 261 -14 q 213 -14 181 7 q 148 28 132 69 l 119 0 l 29 0 l 177 760 l 267 760 z"},"%":{"x_min":0,"x_max":602,"ha":602,"o":"m 340 156 q 340 118 365 92 q 391 66 429 66 q 467 66 493 92 q 519 118 519 156 q 519 193 493 220 q 466 246 429 246 q 391 246 365 220 q 340 194 340 156 z m 274 156 q 274 222 319 267 q 364 312 429 312 q 460 312 489 300 q 517 289 539 266 q 562 243 574 215 q 586 187 586 156 q 586 91 541 45 q 495 0 429 0 q 363 0 318 45 q 274 89 274 156 z m 59 227 l 42 274 l 551 478 l 571 431 z m 82 543 q 82 504 108 479 q 133 453 172 453 q 209 453 236 479 q 262 505 262 543 q 262 581 236 607 q 209 633 172 633 q 134 633 108 607 q 82 581 82 543 z m 16 543 q 16 609 61 654 q 106 699 172 699 q 203 699 232 688 q 260 676 282 654 q 304 632 316 603 q 328 575 328 543 q 328 478 283 432 q 237 387 172 387 q 106 387 61 432 q 16 477 16 543 z"},"m":{"x_min":0,"x_max":602,"ha":602,"o":"m 365 491 q 384 524 415 542 q 445 560 483 560 q 525 560 550 533 q 575 507 575 462 q 575 436 571 402 q 566 369 556 317 l 494 0 l 412 0 l 473 313 q 482 358 487 386 q 491 415 491 427 q 491 458 480 471 q 469 485 444 485 q 407 485 387 453 q 366 422 345 313 l 284 0 l 202 0 l 263 313 q 272 360 277 388 q 281 416 281 427 q 281 457 269 471 q 258 485 234 485 q 198 485 178 456 q 158 427 136 313 l 75 0 l -7 0 l 99 547 l 181 547 l 172 500 q 193 529 220 545 q 248 560 279 560 q 315 560 338 542 q 360 523 365 491 z"},"#":{"x_min":0,"x_max":602,"ha":602,"o":"m 380 440 l 260 440 l 219 277 l 339 277 z m 330 718 l 279 515 l 399 515 l 450 718 l 528 718 l 477 515 l 602 515 l 583 440 l 458 440 l 417 277 l 543 277 l 524 202 l 398 202 l 347 0 l 269 0 l 320 202 l 200 202 l 149 0 l 71 0 l 122 202 l -3 202 l 16 277 l 141 277 l 182 440 l 56 440 l 75 515 l 201 515 l 252 718 z"},",":{"x_min":0,"x_max":602,"ha":602,"o":"m 203 148 l 326 148 l 306 47 l 174 -140 l 99 -140 l 183 47 z"},"n":{"x_min":0,"x_max":602,"ha":602,"o":"m 525 339 l 459 0 l 369 0 l 435 339 q 436 341 437 346 q 444 381 444 400 q 444 439 421 461 q 398 482 356 482 q 294 482 250 437 q 207 391 191 309 l 131 0 l 41 0 l 148 547 l 238 547 l 222 465 q 259 512 302 536 q 344 560 392 560 q 460 560 498 525 q 535 489 535 426 q 535 410 532 387 q 530 364 525 339 z"},"h":{"x_min":0,"x_max":602,"ha":602,"o":"m 525 339 l 459 0 l 369 0 l 435 339 q 436 341 437 346 q 444 381 444 400 q 444 439 421 461 q 398 482 356 482 q 294 482 250 437 q 207 391 191 309 l 131 0 l 41 0 l 189 760 l 279 760 l 222 465 q 259 512 302 536 q 344 560 392 560 q 460 560 498 525 q 535 489 535 426 q 535 410 532 387 q 530 364 525 339 z"},"z":{"x_min":0,"x_max":602,"ha":602,"o":"m 156 547 l 553 547 l 537 465 l 154 72 l 461 72 l 447 0 l 38 0 l 54 82 l 437 475 l 142 475 z"},"B":{"x_min":0,"x_max":602,"ha":602,"o":"m 178 348 l 126 81 l 247 81 q 337 81 385 124 q 432 166 432 246 q 432 298 399 323 q 366 348 296 348 z m 236 648 l 193 428 l 312 428 q 386 428 428 464 q 470 499 470 561 q 470 607 443 627 q 416 648 355 648 z m 153 729 l 369 729 q 468 729 519 690 q 570 651 570 576 q 570 501 525 450 q 480 400 404 390 q 465 379 497 340 q 530 302 530 241 q 530 127 452 63 q 374 0 232 0 l 11 0 z"},"K":{"x_min":0,"x_max":602,"ha":602,"o":"m 138 729 l 237 729 l 175 413 l 537 729 l 661 729 l 318 427 l 527 0 l 420 0 l 244 362 l 150 280 l 95 0 l -4 0 z"},"R":{"x_min":0,"x_max":602,"ha":602,"o":"m 374 344 q 409 337 430 312 q 452 286 478 199 l 537 0 l 439 0 l 387 184 q 366 260 339 284 q 312 308 259 308 l 165 308 l 105 0 l 6 0 l 147 729 l 350 729 q 451 729 507 685 q 562 642 562 562 q 562 473 511 414 q 461 355 374 344 z m 231 648 l 181 389 l 288 389 q 368 389 415 431 q 463 473 463 542 q 463 597 432 622 q 401 648 335 648 z"},"T":{"x_min":0,"x_max":602,"ha":602,"o":"m 94 729 l 651 729 l 635 646 l 406 646 l 281 0 l 181 0 l 307 646 l 78 646 z"},"P":{"x_min":0,"x_max":602,"ha":602,"o":"m 250 648 l 197 374 l 311 374 q 392 374 440 421 q 488 467 488 545 q 488 598 458 623 q 427 648 364 648 z m 167 729 l 382 729 q 482 729 535 684 q 588 639 588 554 q 588 433 510 363 q 432 293 295 293 l 181 293 l 124 0 l 25 0 z"},"|":{"x_min":0,"x_max":602,"ha":602,"o":"m 343 764 l 343 -236 l 259 -236 l 259 764 z"},"t":{"x_min":0,"x_max":602,"ha":602,"o":"m 375 702 l 345 547 l 549 547 l 535 477 l 331 477 l 273 180 q 270 166 269 153 q 267 141 267 130 q 267 98 286 85 q 305 72 355 72 l 456 72 l 442 0 l 333 0 q 251 0 213 27 q 175 54 175 112 q 175 124 177 141 q 179 157 183 180 l 241 477 l 95 477 l 109 547 l 255 547 l 285 702 z"},"M":{"x_min":0,"x_max":602,"ha":602,"o":"m 112 729 l 243 729 l 297 360 l 499 729 l 631 729 l 489 0 l 398 0 l 524 648 l 312 260 l 243 260 l 187 648 l 62 0 l -29 0 z"},"g":{"x_min":0,"x_max":602,"ha":602,"o":"m 250 71 q 289 71 321 93 q 354 115 376 156 q 400 200 413 254 q 427 309 427 361 q 427 419 399 451 q 372 484 323 484 q 248 484 197 402 q 145 319 145 195 q 145 137 173 104 q 201 71 250 71 z m 460 35 q 434 -97 369 -156 q 304 -215 183 -215 q 143 -215 104 -208 q 65 -201 29 -188 l 47 -99 q 83 -121 121 -132 q 159 -143 198 -143 q 271 -143 311 -104 q 351 -65 369 26 l 381 83 q 353 41 310 18 q 268 -4 214 -4 q 139 -4 94 49 q 50 101 50 191 q 50 259 69 326 q 89 393 124 445 q 160 500 211 530 q 262 560 316 560 q 365 560 402 536 q 439 513 456 471 l 469 545 l 559 545 z"},"j":{"x_min":0,"x_max":602,"ha":602,"o":"m 243 -10 l 337 477 l 182 477 l 196 547 l 441 547 l 333 -10 q 313 -114 264 -161 q 214 -208 126 -208 l 2 -208 l 17 -132 l 131 -132 q 177 -132 204 -103 q 231 -74 243 -10 z m 392 760 l 482 760 l 460 646 l 370 646 z"},"i":{"x_min":0,"x_max":602,"ha":602,"o":"m 175 547 l 405 547 l 312 70 l 490 70 l 476 0 l 30 0 l 44 70 l 222 70 l 301 477 l 161 477 z m 356 760 l 446 760 l 424 646 l 334 646 z"},"y":{"x_min":0,"x_max":602,"ha":602,"o":"m 384 176 q 354 124 303 35 q 228 -99 201 -135 q 173 -172 136 -190 q 100 -208 53 -208 l -19 -208 l -5 -133 l 48 -133 q 87 -133 116 -110 q 145 -87 174 -32 l 195 9 l 89 547 l 178 547 l 262 126 l 498 547 l 598 547 z"},"@":{"x_min":0,"x_max":602,"ha":602,"o":"m 346 127 q 407 127 450 178 q 492 230 492 304 q 492 351 468 378 q 443 405 400 405 q 340 405 298 354 q 256 303 256 229 q 256 182 280 154 q 304 127 346 127 z m 517 66 l 447 66 l 457 120 q 432 89 397 73 q 363 56 323 56 q 259 56 219 101 q 178 146 178 217 q 178 324 243 401 q 307 477 396 477 q 437 477 469 459 q 500 442 514 412 l 518 433 q 521 450 522 463 q 524 476 524 483 q 524 544 488 579 q 453 613 389 613 q 320 613 256 575 q 191 537 145 467 q 104 406 83 333 q 61 260 61 183 q 61 58 124 -14 q 187 -86 297 -86 q 325 -86 354 -80 q 383 -74 416 -61 l 438 -125 q 406 -140 371 -147 q 336 -155 296 -155 q 155 -155 71 -62 q -14 30 -14 185 q -14 283 21 381 q 56 478 116 549 q 170 613 242 647 q 313 682 391 682 q 483 682 538 631 q 593 580 593 494 q 593 479 591 461 q 588 442 584 419 z"},".":{"x_min":0,"x_max":602,"ha":602,"o":"m 202 148 l 325 148 l 296 0 l 173 0 z"},"p":{"x_min":0,"x_max":602,"ha":602,"o":"m 143 69 l 89 -208 l -1 -208 l 146 547 l 236 547 l 222 477 q 252 517 294 539 q 336 560 385 560 q 464 560 507 509 q 551 458 551 367 q 551 297 531 227 q 512 157 478 103 q 441 45 392 16 q 342 -14 282 -14 q 233 -14 199 6 q 165 27 143 69 z m 278 62 q 317 62 350 84 q 383 105 405 147 q 429 192 442 248 q 456 305 456 360 q 456 422 431 453 q 406 484 356 484 q 314 484 281 462 q 248 440 224 397 q 200 354 187 298 q 173 243 173 187 q 173 127 200 94 q 228 62 278 62 z"},"X":{"x_min":0,"x_max":602,"ha":602,"o":"m 118 729 l 216 729 l 325 469 l 540 729 l 653 729 l 362 378 l 520 0 l 422 0 l 298 299 l 51 0 l -62 0 l 259 389 z"},"*":{"x_min":0,"x_max":602,"ha":602,"o":"m 521 609 l 346 514 l 521 419 l 493 371 l 329 470 l 329 286 l 273 286 l 273 470 l 109 371 l 81 419 l 256 514 l 81 609 l 109 657 l 273 558 l 273 742 l 329 742 l 329 558 l 493 657 z"},"Y":{"x_min":0,"x_max":602,"ha":602,"o":"m 95 729 l 194 729 l 309 411 l 552 729 l 658 729 l 348 327 l 285 0 l 184 0 l 248 327 z"},"c":{"x_min":0,"x_max":602,"ha":602,"o":"m 459 25 q 423 6 383 -4 q 342 -14 298 -14 q 188 -14 132 41 q 76 96 76 203 q 76 276 102 346 q 128 416 173 464 q 218 512 273 536 q 327 560 392 560 q 436 560 476 550 q 517 539 555 518 l 537 429 q 505 458 471 471 q 437 484 395 484 q 341 484 300 462 q 258 440 229 397 q 202 357 186 305 q 171 254 171 203 q 171 133 204 97 q 238 62 304 62 q 351 62 394 77 q 438 92 478 123 z"},"!":{"x_min":0,"x_max":602,"ha":602,"o":"m 323 729 l 422 729 l 359 409 l 316 235 l 237 235 l 261 409 z m 205 124 l 304 124 l 280 0 l 181 0 z"},"/":{"x_min":0,"x_max":602,"ha":602,"o":"m 8 -93 l 424 729 l 517 729 l 100 -93 z"},"[":{"x_min":0,"x_max":602,"ha":602,"o":"m 303 760 l 510 760 l 496 690 l 379 690 l 233 -62 l 350 -62 l 337 -132 l 129 -132 z"},"6":{"x_min":0,"x_max":602,"ha":602,"o":"m 420 290 q 420 345 392 375 q 363 405 311 405 q 240 405 191 343 q 143 282 143 189 q 143 130 173 96 q 203 63 255 63 q 325 63 373 128 q 420 194 420 290 z m 551 713 l 533 622 q 505 640 472 650 q 438 659 402 659 q 308 659 246 589 q 185 519 158 381 q 191 431 237 456 q 283 482 338 482 q 425 482 472 433 q 519 385 519 295 q 519 237 500 179 q 480 121 447 80 q 409 33 360 9 q 312 -14 252 -14 q 153 -14 99 43 q 45 100 45 205 q 45 286 64 374 q 83 461 116 532 q 164 637 239 690 q 313 742 414 742 q 451 742 485 735 q 520 727 551 713 z"},"r":{"x_min":0,"x_max":602,"ha":602,"o":"m 578 434 q 556 456 527 466 q 498 477 461 477 q 381 477 324 421 q 267 365 248 268 l 196 0 l 106 0 l 212 547 l 302 547 l 282 440 q 315 499 367 529 q 419 560 485 560 q 520 560 548 551 q 576 542 595 525 z"},"2":{"x_min":0,"x_max":602,"ha":602,"o":"m 131 83 l 465 83 l 449 0 l 3 0 l 19 83 l 171 217 l 190 234 q 452 464 452 563 q 452 608 421 634 q 390 660 334 660 q 289 660 237 644 q 186 627 124 594 l 144 694 q 199 718 250 730 q 301 742 348 742 q 438 742 494 695 q 550 647 550 572 q 550 525 532 483 q 515 440 475 390 q 459 370 417 331 q 375 292 287 217 z"},"{":{"x_min":0,"x_max":602,"ha":602,"o":"m 574 760 l 560 690 l 522 690 q 456 690 433 671 q 410 651 395 578 l 370 455 q 354 377 325 342 q 295 306 241 296 q 277 287 296 262 q 316 237 316 200 q 316 188 314 172 q 312 157 309 138 l 286 19 q 283 3 282 -10 q 281 -22 281 -34 q 281 -65 302 -79 q 323 -93 370 -93 l 408 -93 l 394 -163 l 359 -163 q 268 -163 228 -136 q 188 -110 188 -50 q 188 -35 190 -18 q 191 -1 195 17 l 217 132 q 217 133 218 138 q 223 162 223 184 q 223 226 199 244 q 175 262 120 262 l 90 262 l 104 334 l 134 334 q 205 334 235 361 q 266 388 281 461 l 305 580 q 317 640 335 675 q 353 710 379 729 q 402 746 436 753 q 469 760 534 760 z"},"9":{"x_min":0,"x_max":602,"ha":602,"o":"m 161 438 q 161 383 189 353 q 218 323 270 323 q 341 323 390 385 q 438 446 438 539 q 438 599 409 632 q 379 665 327 665 q 257 665 209 600 q 161 534 161 438 z m 31 15 l 48 106 q 76 88 109 78 q 143 69 179 69 q 273 69 335 139 q 396 209 423 347 q 390 297 344 272 q 298 246 243 246 q 156 246 109 295 q 62 344 62 434 q 62 492 82 550 q 101 607 134 648 q 172 695 221 719 q 270 742 329 742 q 428 742 483 685 q 537 627 537 523 q 537 442 518 354 q 499 267 466 196 q 418 91 343 39 q 269 -14 167 -14 q 130 -14 96 -7 q 62 0 31 15 z"}," ":{"x_min":0,"x_max":602,"ha":602,"o":""},"I":{"x_min":0,"x_max":602,"ha":602,"o":"m 169 729 l 574 729 l 558 646 l 405 646 l 296 83 l 449 83 l 433 0 l 28 0 l 44 83 l 197 83 l 306 646 l 153 646 z"},"H":{"x_min":0,"x_max":602,"ha":602,"o":"m 138 729 l 237 729 l 179 430 l 449 430 l 507 729 l 606 729 l 464 0 l 365 0 l 433 347 l 162 347 l 95 0 l -4 0 z"},"4":{"x_min":0,"x_max":602,"ha":602,"o":"m 411 626 l 106 254 l 337 254 z m 413 729 l 527 729 l 434 254 l 531 254 l 516 174 l 419 174 l 385 0 l 288 0 l 322 174 l 12 174 l 30 267 z"},"~":{"x_min":0,"x_max":602,"ha":602,"o":"m 559 381 l 559 296 q 522 267 488 254 q 453 240 414 240 q 370 240 315 265 q 304 270 299 272 q 261 288 236 294 q 211 300 186 300 q 147 300 113 285 q 79 271 43 240 l 43 325 q 81 354 117 368 q 152 381 193 381 q 219 381 243 375 q 268 370 304 355 q 310 353 320 348 q 376 321 422 321 q 456 321 490 336 q 523 351 559 381 z"},"D":{"x_min":0,"x_max":602,"ha":602,"o":"m 158 81 q 249 81 303 112 q 358 142 391 211 q 417 267 434 345 q 451 423 451 488 q 451 574 411 611 q 371 648 277 648 l 221 648 l 111 81 z m 286 729 q 419 729 486 668 q 552 608 552 485 q 552 406 531 322 q 511 238 476 173 q 425 80 349 40 q 273 0 144 0 l -4 0 l 138 729 z"},"^":{"x_min":0,"x_max":602,"ha":602,"o":"m 344 729 l 567 457 l 480 457 l 301 650 l 122 457 l 35 457 l 258 729 z"},"0":{"x_min":0,"x_max":602,"ha":602,"o":"m 235 366 q 235 393 254 413 q 274 432 301 432 q 328 432 347 413 q 366 393 366 366 q 366 339 347 320 q 328 301 301 301 q 274 301 254 320 q 235 339 235 366 z m 554 498 q 554 405 526 297 q 498 188 457 121 q 416 52 362 19 q 307 -14 235 -14 q 140 -14 94 46 q 48 106 48 231 q 48 325 76 432 q 104 539 145 608 q 187 677 240 709 q 294 742 366 742 q 461 742 508 682 q 554 622 554 498 z m 247 66 q 286 66 320 91 q 353 116 376 163 q 410 231 432 332 q 455 433 455 519 q 455 594 431 628 q 407 662 355 662 q 316 662 282 637 q 249 612 225 566 q 191 498 168 396 q 146 294 146 202 q 146 133 171 100 q 196 66 247 66 z"},"F":{"x_min":0,"x_max":602,"ha":602,"o":"m 187 729 l 616 729 l 600 646 l 270 646 l 228 431 l 527 431 l 511 348 l 212 348 l 144 0 l 45 0 z"},"`":{"x_min":0,"x_max":602,"ha":602,"o":"m 318 800 l 414 616 l 344 616 l 221 800 z"},"k":{"x_min":0,"x_max":602,"ha":602,"o":"m 192 760 l 285 760 l 202 333 l 470 547 l 588 547 l 334 341 l 516 0 l 412 0 l 262 284 l 180 219 l 137 0 l 44 0 z"},"u":{"x_min":0,"x_max":602,"ha":602,"o":"m 70 208 l 135 547 l 225 547 l 159 208 q 156 190 154 173 q 152 157 152 145 q 152 106 175 86 q 197 65 239 65 q 301 65 344 110 q 387 155 403 238 l 463 547 l 553 547 l 447 0 l 357 0 l 373 82 q 337 34 294 10 q 250 -13 199 -13 q 135 -13 98 23 q 61 59 61 120 q 61 139 63 162 q 65 185 70 208 z"},"]":{"x_min":0,"x_max":602,"ha":602,"o":"m 453 760 l 279 -132 l 72 -132 l 86 -62 l 203 -62 l 349 690 l 232 690 l 246 760 z"},"U":{"x_min":0,"x_max":602,"ha":602,"o":"m 56 280 l 143 729 l 242 729 l 155 280 q 154 273 151 260 q 136 185 136 156 q 136 111 163 88 q 189 66 243 66 q 287 66 317 80 q 347 94 369 124 q 380 139 391 176 q 402 213 415 280 l 502 729 l 601 729 l 514 280 q 494 173 470 123 q 447 73 409 42 q 375 15 330 0 q 286 -14 234 -14 q 140 -14 90 30 q 39 74 39 155 q 39 173 43 204 q 47 234 56 280 z"},"o":{"x_min":0,"x_max":602,"ha":602,"o":"m 340 484 q 260 484 206 400 q 153 317 153 188 q 153 125 180 94 q 208 62 262 62 q 342 62 396 146 q 449 229 449 358 q 449 421 422 452 q 395 484 340 484 z m 348 560 q 444 560 494 508 q 544 456 544 355 q 544 288 524 221 q 504 154 468 101 q 429 43 374 15 q 319 -14 247 -14 q 156 -14 106 39 q 57 93 57 192 q 57 258 77 324 q 97 390 134 445 q 172 501 227 531 q 281 560 348 560 z"},"N":{"x_min":0,"x_max":602,"ha":602,"o":"m 139 729 l 264 729 l 393 129 l 510 729 l 605 729 l 463 0 l 338 0 l 209 600 l 92 0 l -3 0 z"},"+":{"x_min":0,"x_max":602,"ha":602,"o":"m 342 572 l 342 355 l 559 355 l 559 272 l 342 272 l 342 55 l 260 55 l 260 272 l 43 272 l 43 355 l 260 355 l 260 572 z"},"G":{"x_min":0,"x_max":602,"ha":602,"o":"m 473 47 q 431 17 380 1 q 330 -14 273 -14 q 160 -14 99 52 q 38 117 38 239 q 38 283 46 332 q 54 382 70 436 q 87 493 110 539 q 133 585 160 618 q 212 682 276 712 q 339 742 420 742 q 459 742 498 732 q 537 722 574 702 l 554 601 q 522 632 488 647 q 453 662 413 662 q 365 662 323 642 q 281 622 248 582 q 227 557 208 519 q 188 480 174 433 q 157 377 149 329 q 140 280 140 240 q 140 157 179 111 q 217 66 288 66 q 321 66 348 75 q 374 84 392 101 l 429 293 l 323 293 l 338 374 l 538 374 z"},"q":{"x_min":0,"x_max":602,"ha":602,"o":"m 378 69 q 348 28 308 7 q 268 -14 218 -14 q 138 -14 93 36 q 48 87 48 178 q 48 248 68 318 q 88 389 123 444 q 160 501 211 531 q 262 560 325 560 q 374 560 407 539 q 440 519 457 477 l 470 547 l 560 547 l 414 -208 l 324 -208 z m 326 484 q 285 484 251 462 q 218 441 196 399 q 172 353 158 296 q 144 240 144 187 q 144 125 169 93 q 193 62 243 62 q 283 62 317 84 q 351 106 375 149 q 398 190 413 248 q 427 305 427 360 q 427 420 401 452 q 375 484 326 484 z"},"d":{"x_min":0,"x_max":602,"ha":602,"o":"m 335 484 q 292 484 259 463 q 227 441 204 399 q 180 355 167 299 q 154 243 154 187 q 154 125 179 93 q 204 62 253 62 q 294 62 328 84 q 361 106 385 149 q 409 191 422 248 q 436 304 436 360 q 436 418 409 451 q 383 484 335 484 z m 466 477 l 522 760 l 612 760 l 464 0 l 374 0 l 387 69 q 355 28 315 7 q 275 -14 226 -14 q 146 -14 102 37 q 58 88 58 180 q 58 250 78 321 q 97 391 131 444 q 167 501 217 531 q 267 560 327 560 q 375 560 410 539 q 446 518 466 477 z"},"1":{"x_min":0,"x_max":602,"ha":602,"o":"m 76 83 l 229 83 l 337 640 l 165 603 l 182 693 l 354 729 l 453 729 l 327 83 l 478 83 l 462 0 l 60 0 z"},"5":{"x_min":0,"x_max":602,"ha":602,"o":"m 172 729 l 541 729 l 525 646 l 246 646 l 211 467 q 234 475 256 478 q 277 482 299 482 q 391 482 447 427 q 503 371 503 281 q 503 220 477 163 q 452 106 405 64 q 362 25 306 5 q 251 -14 181 -14 q 128 -14 83 -6 q 37 2 2 17 l 22 117 q 63 92 106 80 q 149 68 195 68 q 286 68 345 125 q 405 182 405 267 q 405 330 365 365 q 326 401 257 401 q 218 401 178 391 q 138 381 101 363 z"}}}
